<svg width="40" height="40" viewBox="0 0 40 40" fill="none" xmlns="http://www.w3.org/2000/svg">
<circle cx="20" cy="20" r="20" fill="#1269EB"/>
<path d="M27.1459 18.9792H21.0209V12.8542C21.0209 12.5834 20.9133 12.3238 20.7219 12.1323C20.5304 11.9409 20.2708 11.8333 20 11.8333C19.7293 11.8333 19.4696 11.9409 19.2782 12.1323C19.0868 12.3238 18.9792 12.5834 18.9792 12.8542V18.9792H12.8542C12.5835 18.9792 12.3238 19.0867 12.1324 19.2782C11.9409 19.4696 11.8334 19.7293 11.8334 20C11.8334 20.2708 11.9409 20.5304 12.1324 20.7218C12.3238 20.9133 12.5835 21.0208 12.8542 21.0208H18.9792V27.1458C18.9792 27.4166 19.0868 27.6762 19.2782 27.8677C19.4696 28.0591 19.7293 28.1667 20 28.1667C20.2708 28.1667 20.5304 28.0591 20.7219 27.8677C20.9133 27.6762 21.0209 27.4166 21.0209 27.1458V21.0208H27.1459C27.4166 21.0208 27.6763 20.9133 27.8677 20.7218C28.0592 20.5304 28.1667 20.2708 28.1667 20C28.1667 19.7293 28.0592 19.4696 27.8677 19.2782C27.6763 19.0867 27.4166 18.9792 27.1459 18.9792Z" fill="white"/>
</svg>
