<svg width="22" height="17" viewBox="0 0 22 17" fill="none" xmlns="http://www.w3.org/2000/svg">
<path fill-rule="evenodd" clip-rule="evenodd" d="M16.9355 5H17.0105C17.6002 5.0003 18.1841 5.1169 18.7288 5.34315C19.2734 5.5694 19.7681 5.90084 20.1845 6.3185C21.027 7.16296 21.5001 8.30713 21.5001 9.5C21.5001 10.6929 21.027 11.837 20.1845 12.6815C19.7679 13.0993 19.273 13.4309 18.7281 13.6571C18.1832 13.8834 17.599 13.9999 17.009 14V12.5C17.7814 12.4654 18.5107 12.1343 19.0451 11.5755C19.5795 11.0166 19.8778 10.2732 19.8778 9.5C19.8778 8.72679 19.5795 7.98337 19.0451 7.42455C18.5107 6.86572 17.7814 6.53455 17.009 6.5H15.638L15.4535 5.2145C15.3409 4.40911 14.9685 3.66247 14.393 3.08798C13.8174 2.51349 13.0701 2.14255 12.2645 2.0315C11.4586 1.92174 10.639 2.0793 9.93132 2.48002C9.22362 2.88074 8.66688 3.50251 8.34645 4.25L7.84695 5.393L6.63345 5.1095C6.35558 5.04058 6.07071 5.00384 5.78445 5C4.79145 5 3.83895 5.3945 3.13845 6.098C2.61641 6.62292 2.2612 7.29046 2.11748 8.0167C1.97377 8.74294 2.04797 9.49545 2.33075 10.1796C2.61353 10.8638 3.09227 11.4491 3.70678 11.862C4.32129 12.2749 5.04414 12.4968 5.78445 12.5H6.53145V14H5.78445C5.04148 14.0067 4.30562 13.855 3.62589 13.5549C2.94616 13.2549 2.33818 12.8134 1.84245 12.26C1.22034 11.5666 0.793831 10.7202 0.606645 9.80758C0.419459 8.89499 0.478333 7.94903 0.77723 7.06669C1.07613 6.18435 1.60429 5.39737 2.30758 4.78643C3.01087 4.17549 3.86398 3.76257 4.77945 3.59C5.5093 3.4523 6.26019 3.47276 6.98145 3.65C7.43608 2.60902 8.21733 1.7444 9.20703 1.1869C10.1967 0.629394 11.3411 0.409335 12.467 0.560002C13.5938 0.712193 14.6401 1.22827 15.4467 2.02972C16.2533 2.83118 16.7761 3.87416 16.9355 5ZM9.06045 12.6815L11.0315 14.6525V6.5H12.5225V14.6L14.4395 12.6815L15.5 13.742L12.281 16.9625H11.219L7.99995 13.7435L9.06045 12.6815Z" fill="#0E2341"/>
</svg>
