<svg width="20" height="20" viewBox="0 0 20 20" fill="none" xmlns="http://www.w3.org/2000/svg">
<path fill-rule="evenodd" clip-rule="evenodd" d="M17.5 11.6658C17.4995 11.2078 17.1247 10.8333 16.6666 10.8333H14.1666V8.33333C14.1666 7.875 13.7916 7.5 13.3333 7.5C12.875 7.5 12.5 7.875 12.5 8.33333V10.8333H9.99996C9.54163 10.8333 9.16663 11.2083 9.16663 11.6667C9.16663 12.125 9.54163 12.5 9.99996 12.5H12.5V15C12.5 15.4583 12.875 15.8333 13.3333 15.8333C13.7916 15.8333 14.1666 15.4583 14.1666 15V12.5H16.6666C17.1247 12.5 17.4995 12.1255 17.5 11.6676C17.5 11.6673 17.5 11.667 17.5 11.6667C17.5 11.6664 17.5 11.6661 17.5 11.6658Z" fill="#1269EB"/>
<path d="M4.61473 15.8333C4.16186 15.8333 3.84078 15.3915 3.98066 14.9607L6.68073 6.6465C6.8206 6.21578 6.49953 5.77392 6.04666 5.77392H3.17277C2.80219 5.77392 2.50272 5.47169 2.50613 5.10112L2.50865 4.82719C2.51202 4.46141 2.80949 4.16666 3.17529 4.16666H8.49994C8.86813 4.16666 9.16661 4.46513 9.16661 4.83332V5.31336C9.16661 5.38537 9.15495 5.4569 9.13207 5.52517L5.83048 15.3785C5.73943 15.6502 5.48492 15.8333 5.19835 15.8333H4.61473Z" fill="#1269EB"/>
</svg>
