<svg width="20" height="20" viewBox="0 0 20 20" fill="none" xmlns="http://www.w3.org/2000/svg">
<path fill-rule="evenodd" clip-rule="evenodd" d="M3.75 3.75C3.05964 3.75 2.5 4.30964 2.5 5V16.25C2.5 16.9404 3.05964 17.5 3.75 17.5H16.25C16.9404 17.5 17.5 16.9404 17.5 16.25V5C17.5 4.30964 16.9404 3.75 16.25 3.75H3.75ZM1.25 5C1.25 3.61929 2.36929 2.5 3.75 2.5H16.25C17.6307 2.5 18.75 3.61929 18.75 5V16.25C18.75 17.6307 17.6307 18.75 16.25 18.75H3.75C2.36929 18.75 1.25 17.6307 1.25 16.25V5Z" fill="#465A78"/>
<path fill-rule="evenodd" clip-rule="evenodd" d="M5 1.25C5.34518 1.25 5.625 1.52982 5.625 1.875V3.125C5.625 3.47018 5.34518 3.75 5 3.75C4.65482 3.75 4.375 3.47018 4.375 3.125V1.875C4.375 1.52982 4.65482 1.25 5 1.25Z" fill="#465A78"/>
<path fill-rule="evenodd" clip-rule="evenodd" d="M15 1.25C15.3452 1.25 15.625 1.52982 15.625 1.875V3.125C15.625 3.47018 15.3452 3.75 15 3.75C14.6548 3.75 14.375 3.47018 14.375 3.125V1.875C14.375 1.52982 14.6548 1.25 15 1.25Z" fill="#465A78"/>
<path fill-rule="evenodd" clip-rule="evenodd" d="M1.25 6.25C1.25 5.90482 1.52982 5.625 1.875 5.625H18.125C18.4702 5.625 18.75 5.90482 18.75 6.25C18.75 6.59518 18.4702 6.875 18.125 6.875H1.875C1.52982 6.875 1.25 6.59518 1.25 6.25Z" fill="#465A78"/>
<path fill-rule="evenodd" clip-rule="evenodd" d="M9.76943 15.8333C9.77255 15.8334 9.77567 15.8334 9.77879 15.8333C9.77883 15.8333 9.77888 15.8333 9.77893 15.8333C9.99994 15.8333 10.2119 15.7455 10.3682 15.5893C10.5245 15.433 10.6123 15.221 10.6123 15C10.6151 14.8907 10.5922 14.7822 10.5456 14.6833C10.456 14.4831 10.2958 14.3229 10.0956 14.2333V14.225C9.94388 14.1579 9.77558 14.1376 9.61226 14.1667L9.46226 14.2167L9.31226 14.2917L9.18726 14.4C9.1123 14.4768 9.05288 14.5673 9.01226 14.6667C8.96299 14.7706 8.94009 14.8851 8.94559 15C8.94316 15.1111 8.963 15.2217 9.00393 15.325C9.04702 15.425 9.10931 15.5156 9.18726 15.5917C9.26513 15.6689 9.35747 15.73 9.459 15.7715C9.5576 15.8118 9.66298 15.8327 9.76943 15.8333ZM8.55081 10.8044C8.33849 10.8622 8.11194 10.8337 7.92059 10.725C7.8251 10.6706 7.74133 10.5978 7.67409 10.5108C7.60685 10.4239 7.55748 10.3245 7.52882 10.2183C7.50016 10.1122 7.49278 10.0015 7.5071 9.89251C7.52142 9.78353 7.55716 9.67845 7.61226 9.58334C7.83165 9.20335 8.14718 8.8878 8.52715 8.66838C8.90712 8.44896 9.33815 8.33341 9.77692 8.33334C10.2157 8.33327 10.6468 8.44868 11.0268 8.66798C11.4068 8.88728 11.7225 9.20273 11.942 9.58265C12.1615 9.96257 12.2771 10.3936 12.2773 10.8323C12.2775 11.2711 12.1622 11.7022 11.943 12.0823C11.7238 12.4624 11.4084 12.7781 11.0285 12.9977C10.6487 13.2173 10.2177 13.3331 9.77893 13.3333C9.55791 13.3333 9.34595 13.2455 9.18967 13.0893C9.03339 12.933 8.94559 12.721 8.94559 12.5C8.94559 12.279 9.03339 12.067 9.18967 11.9108C9.34595 11.7545 9.55791 11.6667 9.77893 11.6667C9.99994 11.6667 10.2119 11.5789 10.3682 11.4226C10.5245 11.2663 10.6123 11.0544 10.6123 10.8333C10.6135 10.6488 10.5536 10.4691 10.4417 10.3224C10.3299 10.1756 10.1725 10.0701 9.9942 10.0225C9.81594 9.9748 9.62691 9.98765 9.45674 10.059C9.28657 10.1303 9.14489 10.2561 9.05392 10.4167C8.94399 10.6073 8.76313 10.7467 8.55081 10.8044Z" fill="#465A78"/>
</svg>
