<svg width="20" height="20" viewBox="0 0 20 20" fill="none" xmlns="http://www.w3.org/2000/svg">
<path fill-rule="evenodd" clip-rule="evenodd" d="M3.12504 4.80903C4.65282 3.26968 6.50798 2.5 8.69052 2.5C10.8731 2.5 12.7282 3.26968 14.256 4.80903C15.7838 6.34838 16.5477 8.21759 16.5477 10.4167H19.1667L15.7701 13.839L15.7292 13.9627L12.1689 10.4167H14.788C14.788 8.71238 14.1946 7.26237 13.0079 6.06662C11.8211 4.87088 10.382 4.273 8.69052 4.273C6.99905 4.273 5.55994 4.87088 4.37318 6.06662C3.18642 7.26237 2.59305 8.71238 2.59305 10.4167C2.59305 12.1209 3.18642 13.571 4.37318 14.7667C5.55994 15.9625 6.99905 16.5603 8.69052 16.5603C10.382 16.5603 11.8143 15.9556 12.9874 14.7461L14.256 16.0243C12.7009 17.5637 10.8458 18.3333 8.69052 18.3333C6.50798 18.3333 4.65282 17.5637 3.12504 16.0243C1.59726 14.485 0.833374 12.6157 0.833374 10.4167C0.833374 8.21759 1.59726 6.34838 3.12504 4.80903Z" fill="#FF9E01"/>
<path d="M8.04566 14.1667C7.75843 14.1667 7.55734 13.8829 7.65255 13.6119L9.4209 8.57886C9.51612 8.30787 9.31503 8.02408 9.0278 8.02408H7.08744C6.8557 8.02408 6.66849 7.83499 6.6708 7.60327L6.67227 7.45515C6.67454 7.22666 6.86042 7.04263 7.08892 7.04263H10.6542C10.8844 7.04263 11.0709 7.22918 11.0709 7.4593V7.73604C11.0709 7.78447 11.0625 7.83252 11.046 7.87805L8.86579 13.892C8.80602 14.0569 8.64943 14.1667 8.47407 14.1667H8.04566Z" fill="#FF9E01"/>
</svg>
