<svg width="20" height="17" viewBox="0 0 20 17" fill="none" xmlns="http://www.w3.org/2000/svg">
<path d="M11.3096 0.5C13.4921 0.5 15.3473 1.26968 16.875 2.80903C18.4028 4.34838 19.1667 6.21759 19.1667 8.41667C19.1667 10.6157 18.4028 12.485 16.875 14.0243C15.3473 15.5637 13.4921 16.3333 11.3096 16.3333C9.15431 16.3333 7.29915 15.5637 5.74409 14.0243L7.01269 12.7461C8.1858 13.9556 9.6181 14.5603 11.3096 14.5603C13.001 14.5603 14.4401 13.9625 15.6269 12.7667C16.8137 11.571 17.407 10.1209 17.407 8.41667C17.407 6.71238 16.8137 5.26237 15.6269 4.06662C14.4401 2.87088 13.001 2.273 11.3096 2.273C9.6181 2.273 8.17898 2.87088 6.99223 4.06662C5.80547 5.26237 5.21209 6.71238 5.21209 8.41667H7.83114L4.27087 11.9627L4.22995 11.839L0.833374 8.41667H3.45242C3.45242 6.21759 4.21631 4.34838 5.74409 2.80903C7.27187 1.26968 9.12702 0.5 11.3096 0.5ZM10.4502 4.91189H11.7597V8.62283L14.788 10.4783L14.1741 11.5503L10.4502 9.28255V4.91189Z" fill="#FF7B01"/>
</svg>
