<svg width="130" height="40" viewBox="0 0 130 40" fill="none" xmlns="http://www.w3.org/2000/svg">
<mask id="mask0" mask-type="alpha" maskUnits="userSpaceOnUse" x="20" y="28" width="15" height="12">
<path fill-rule="evenodd" clip-rule="evenodd" d="M20.9106 40H34.6166V28.2803H20.9106V40H20.9106Z" fill="white"/>
</mask>
<g mask="url(#mask0)">
<path fill-rule="evenodd" clip-rule="evenodd" d="M32.6304 28.2803L20.9106 40H22.8969L34.6166 28.2803H32.6304Z" fill="#818285"/>
</g>
<mask id="mask1" mask-type="alpha" maskUnits="userSpaceOnUse" x="0" y="28" width="17" height="12">
<path fill-rule="evenodd" clip-rule="evenodd" d="M16.3256 40H0V28.2803L16.3256 28.2803V40Z" fill="white"/>
</mask>
<g mask="url(#mask1)">
<path fill-rule="evenodd" clip-rule="evenodd" d="M11.7197 28.2803L0 40H4.60586L16.3256 28.2803H11.7197Z" fill="#57585B"/>
</g>
<mask id="mask2" mask-type="alpha" maskUnits="userSpaceOnUse" x="4" y="28" width="29" height="12">
<path fill-rule="evenodd" clip-rule="evenodd" d="M4.88916 40H32.347V28.2803H4.88916L4.88916 40Z" fill="white"/>
</mask>
<g mask="url(#mask2)">
<path fill-rule="evenodd" clip-rule="evenodd" d="M16.6089 28.2803L4.88916 40H20.6272L32.347 28.2803H16.6089Z" fill="#A7AAAD"/>
</g>
<mask id="mask3" mask-type="alpha" maskUnits="userSpaceOnUse" x="23" y="28" width="20" height="12">
<path fill-rule="evenodd" clip-rule="evenodd" d="M23.1804 40H42.9529V28.2803H23.1804V40Z" fill="white"/>
</mask>
<g mask="url(#mask3)">
<path fill-rule="evenodd" clip-rule="evenodd" d="M34.9002 28.2803L23.1804 40H31.2332L42.9529 28.2803H34.9002Z" fill="#939598"/>
</g>
<mask id="mask4" mask-type="alpha" maskUnits="userSpaceOnUse" x="31" y="28" width="14" height="12">
<path fill-rule="evenodd" clip-rule="evenodd" d="M31.5166 40H44.4216V28.2803H31.5166L31.5166 40H31.5166Z" fill="white"/>
</mask>
<g mask="url(#mask4)">
<path fill-rule="evenodd" clip-rule="evenodd" d="M43.2363 28.2803L31.5166 40H32.7018L44.4216 28.2803H43.2363Z" fill="#F1F1F2"/>
</g>
<mask id="mask5" mask-type="alpha" maskUnits="userSpaceOnUse" x="32" y="28" width="18" height="12">
<path fill-rule="evenodd" clip-rule="evenodd" d="M32.8081 40H49.8835V28.2803H32.8081V40H32.8081Z" fill="white"/>
</mask>
<g mask="url(#mask5)">
<path fill-rule="evenodd" clip-rule="evenodd" d="M44.5278 28.2803L32.8081 40H38.1638L49.8835 28.2803H44.5278Z" fill="#D0D3D4"/>
</g>
<path fill-rule="evenodd" clip-rule="evenodd" d="M23.3208 4.0383V7.8011H16.9527V24.3H12.9287V7.8011H6.61865V4.0383H23.3208Z" fill="white"/>
<path fill-rule="evenodd" clip-rule="evenodd" d="M50.4501 10.2321C49.9869 8.20586 48.2213 7.16407 46.4264 7.16407C44.5739 7.16407 43.3872 8.06114 43.3872 9.27694C43.3872 10.8981 45.6738 11.4769 48.2213 12.3455C51.1737 13.3582 54.5604 14.9213 54.5604 18.5396C54.5604 22.1582 51.434 24.7338 46.8027 24.7338C43.3663 24.7338 40.7984 23.1669 39.3584 20.6275L42.4032 17.6132C42.8371 19.4369 44.4582 21.1447 46.9765 21.1447C49.1474 21.1447 50.2766 20.0736 50.2766 18.7134C50.2766 16.6583 47.5265 16.1659 44.6608 15.1531C42.2585 14.2846 39.248 13.0397 39.248 9.50828C39.248 6.35337 42.3742 3.66165 46.6582 3.66165C49.6004 3.66165 52.0807 5.08891 53.4465 7.20076L50.4501 10.2321Z" fill="white"/>
<path fill-rule="evenodd" clip-rule="evenodd" d="M66.931 24.3001L60.3025 15.2114L52.6474 22.7831C52.6474 22.7831 49.9524 20.5271 49.9814 20.5271H50.0102C50.0393 20.5271 59.0576 11.4771 60.9394 9.59613L66.4971 4.03842H71.4467L62.9656 12.5485L71.7073 24.3001H66.931Z" fill="white"/>
<path fill-rule="evenodd" clip-rule="evenodd" d="M25.6037 16.7279L17.9487 24.3001C17.9487 24.3001 12.8597 24.2953 12.889 24.2953L15.3115 22.0441C15.3405 22.0441 24.3591 12.9942 26.2406 11.1126L33.302 4.03848H38.2513L28.2669 14.0652L25.6037 16.7279Z" fill="white"/>
<path fill-rule="evenodd" clip-rule="evenodd" d="M86.2092 20.5373V24.3001H71.7075V4.03824H87.3414V7.80104H75.7305V12.1139H83.8645L83.6624 15.6456H75.7305V20.5373H86.2092Z" fill="white"/>
<path fill-rule="evenodd" clip-rule="evenodd" d="M103.693 6.04641V24.3002H99.9009L94.1406 16.4849C92.3169 13.996 90.0881 10.8115 90.0591 10.8115H90.0303C90.0015 10.8115 90.0591 13.7348 90.0591 17.7585V24.3002H86.0356V4.03851H89.8275L95.7034 11.9404C97.0932 13.7639 99.6405 17.3825 99.6693 17.3825H99.6981C99.7271 17.3825 99.6693 14.0823 99.6693 10.6668V4.03851H103.693V6.04641Z" fill="white"/>
<path fill-rule="evenodd" clip-rule="evenodd" d="M25.5054 15.5898H38.2514V12.1139H25.5054V15.5898Z" fill="white"/>
<path fill-rule="evenodd" clip-rule="evenodd" d="M34.5073 24.2836H38.5713V4.03824H34.5073V24.2836Z" fill="white"/>
<path fill-rule="evenodd" clip-rule="evenodd" d="M58.3403 10.5706V0.00012207H54.3237V14.6042L58.3403 10.5706Z" fill="white"/>
<path fill-rule="evenodd" clip-rule="evenodd" d="M53.4324 6.10352e-05V4.90783L58.3401 6.10352e-05H53.4324Z" fill="#1B75BB"/>
<path fill-rule="evenodd" clip-rule="evenodd" d="M107.645 5.71501C107.72 5.71501 107.788 5.6908 107.85 5.64291C107.911 5.59475 107.942 5.53055 107.942 5.45029C107.942 5.36469 107.907 5.30329 107.838 5.26583C107.768 5.22838 107.704 5.20953 107.645 5.20953H107.268V5.71501H107.645ZM107.998 6.86227L107.557 6.06788H107.268V6.86227H106.779V4.80851H107.661C107.757 4.80851 107.851 4.81921 107.942 4.84062C108.033 4.86202 108.116 4.89667 108.191 4.94482C108.266 4.99297 108.326 5.05845 108.371 5.14151C108.417 5.22431 108.44 5.32724 108.44 5.4503C108.44 5.58941 108.401 5.70431 108.323 5.79527C108.245 5.88622 108.148 5.95297 108.03 5.99578L108.576 6.86227H107.998ZM106.016 5.85948C106.016 6.06789 106.057 6.26585 106.137 6.45286C106.217 6.64038 106.327 6.80496 106.466 6.94636C106.605 7.08827 106.768 7.1991 106.955 7.27936C107.142 7.35961 107.343 7.39961 107.557 7.39961C107.771 7.39961 107.971 7.35961 108.159 7.27936C108.346 7.1991 108.509 7.08827 108.648 6.94636C108.787 6.80496 108.897 6.64038 108.977 6.45286C109.057 6.26585 109.097 6.06789 109.097 5.85948C109.097 5.64547 109.057 5.44496 108.977 5.2577C108.897 5.07044 108.787 4.90738 108.648 4.76827C108.509 4.62942 108.346 4.51961 108.159 4.43936C107.971 4.35936 107.771 4.3191 107.557 4.3191C107.343 4.3191 107.142 4.35936 106.955 4.43936C106.768 4.51961 106.605 4.62942 106.466 4.76827C106.327 4.90738 106.217 5.07044 106.137 5.2577C106.057 5.44496 106.016 5.64547 106.016 5.85948ZM105.728 5.85948C105.728 5.60801 105.776 5.37132 105.872 5.14941C105.969 4.9275 106.1 4.73489 106.265 4.57183C106.431 4.40878 106.625 4.27884 106.847 4.18279C107.069 4.08648 107.306 4.03833 107.557 4.03833C107.808 4.03833 108.045 4.08648 108.267 4.18279C108.489 4.27884 108.682 4.40878 108.849 4.57183C109.014 4.73489 109.145 4.9275 109.242 5.14941C109.338 5.37132 109.386 5.60801 109.386 5.85948C109.386 6.11094 109.338 6.3461 109.242 6.56546C109.145 6.78483 109.014 6.97591 108.849 7.13897C108.682 7.30202 108.489 7.43043 108.267 7.52393C108.045 7.61769 107.808 7.66432 107.557 7.66432C107.306 7.66432 107.069 7.61769 106.847 7.52393C106.625 7.43043 106.431 7.30202 106.265 7.13897C106.1 6.97591 105.969 6.78483 105.872 6.56546C105.776 6.3461 105.728 6.11094 105.728 5.85948Z" fill="white"/>
<path d="M53.6396 28.3892H54.3218C54.477 28.3892 54.576 28.4614 54.6188 28.6059L57.4839 37.9395C57.516 38.0465 57.5427 38.1615 57.5641 38.2846C57.5909 38.4077 57.6176 38.5361 57.6444 38.6698C57.6711 38.5361 57.6979 38.4077 57.7246 38.2846C57.7514 38.1615 57.7835 38.0465 57.8209 37.9395L61.0311 28.6059C61.0525 28.547 61.09 28.4962 61.1435 28.4534C61.197 28.4106 61.2612 28.3892 61.3361 28.3892H61.5608C61.6357 28.3892 61.6972 28.4106 61.7454 28.4534C61.7935 28.4908 61.831 28.5417 61.8577 28.6059L65.0679 37.9395C65.1054 38.0465 65.1375 38.1589 65.1642 38.2766C65.1963 38.3943 65.2258 38.52 65.2525 38.6538C65.2793 38.5254 65.3033 38.4023 65.3247 38.2846C65.3461 38.1615 65.3729 38.0465 65.405 37.9395L68.2701 28.6059C68.2861 28.547 68.3209 28.4962 68.3744 28.4534C68.4333 28.4106 68.5002 28.3892 68.5751 28.3892H69.2011L65.6297 39.7452H64.8914L61.5367 29.8899C61.4939 29.7615 61.4565 29.6251 61.4244 29.4806C61.3923 29.6251 61.3548 29.7615 61.312 29.8899L57.9493 39.7452H57.219L53.6396 28.3892Z" fill="white"/>
<path d="M77.8414 28.3892V29.0713H71.8624V33.6619H76.8382V34.328H71.8624V39.0631H77.8414V39.7452H71.0357V28.3892H77.8414Z" fill="white"/>
<path d="M80.519 39.7452V28.3892H83.7854C84.4327 28.3892 84.9918 28.4534 85.4627 28.5818C85.9389 28.7102 86.3321 28.9001 86.6424 29.1516C86.9527 29.3977 87.1828 29.7 87.3326 30.0585C87.4878 30.417 87.5653 30.8236 87.5653 31.2784C87.5653 31.578 87.5118 31.8669 87.4048 32.1451C87.3032 32.4233 87.1534 32.6801 86.9554 32.9156C86.7575 33.151 86.514 33.357 86.2251 33.5335C85.9415 33.7047 85.6152 33.8358 85.246 33.9268C86.1395 34.0605 86.827 34.3575 87.3085 34.8176C87.7901 35.2777 88.0308 35.885 88.0308 36.6394C88.0308 37.1209 87.9452 37.5543 87.774 37.9395C87.6028 38.3247 87.354 38.6511 87.0276 38.9186C86.7013 39.1861 86.3 39.3921 85.8238 39.5366C85.3476 39.6757 84.8073 39.7452 84.2027 39.7452H80.519ZM81.3376 34.304V39.0871H84.1866C85.1871 39.0871 85.9415 38.8731 86.4498 38.4451C86.9581 38.0117 87.2122 37.4045 87.2122 36.6233C87.2122 36.2648 87.1427 35.9438 87.0036 35.6603C86.8698 35.3713 86.6745 35.1279 86.4177 34.9299C86.1609 34.7266 85.8452 34.5715 85.4707 34.4645C85.0962 34.3575 84.6708 34.304 84.1946 34.304H81.3376ZM81.3376 33.702H83.8014C84.3257 33.702 84.7725 33.6352 85.1417 33.5014C85.5162 33.3677 85.8211 33.1911 86.0566 32.9717C86.2973 32.7524 86.4739 32.5036 86.5862 32.2254C86.6986 31.9471 86.7548 31.6609 86.7548 31.3666C86.7548 30.6015 86.5113 30.0237 86.0245 29.6331C85.5429 29.2372 84.7966 29.0392 83.7854 29.0392H81.3376V33.702Z" fill="white"/>
<path d="M100.36 34.0632C100.36 34.9406 100.229 35.7298 99.9667 36.4307C99.7046 37.1316 99.3354 37.7282 98.8592 38.2204C98.383 38.7126 97.8132 39.0898 97.1498 39.352C96.4863 39.6142 95.7507 39.7452 94.9428 39.7452H90.8016V28.3892H94.9428C95.7507 28.3892 96.4863 28.5203 97.1498 28.7824C97.8132 29.0446 98.383 29.4218 98.8592 29.914C99.3354 30.4063 99.7046 31.0028 99.9667 31.7037C100.229 32.4046 100.36 33.1911 100.36 34.0632ZM99.5093 34.0632C99.5093 33.2713 99.3996 32.5651 99.1802 31.9445C98.9609 31.3238 98.6505 30.7995 98.2493 30.3715C97.8533 29.9434 97.3745 29.6171 96.8127 29.3924C96.2509 29.1677 95.6276 29.0553 94.9428 29.0553H91.6282V39.0791H94.9428C95.6276 39.0791 96.2509 38.9668 96.8127 38.742C97.3745 38.5173 97.8533 38.191 98.2493 37.7629C98.6505 37.3349 98.9609 36.8106 99.1802 36.1899C99.3996 35.5693 99.5093 34.8604 99.5093 34.0632Z" fill="white"/>
<path d="M109.802 28.3892V29.0713H103.823V33.6619H108.799V34.328H103.823V39.0631H109.802V39.7452H102.997V28.3892H109.802Z" fill="white"/>
<path d="M117.969 29.7696C117.921 29.8605 117.852 29.906 117.761 29.906C117.691 29.906 117.6 29.8578 117.488 29.7615C117.381 29.6599 117.234 29.5502 117.046 29.4325C116.859 29.3094 116.624 29.1971 116.34 29.0954C116.062 28.9938 115.717 28.9429 115.305 28.9429C114.893 28.9429 114.529 29.0018 114.213 29.1195C113.903 29.2372 113.641 29.3977 113.427 29.601C113.218 29.8043 113.058 30.0398 112.945 30.3073C112.838 30.5748 112.785 30.8557 112.785 31.1499C112.785 31.5352 112.865 31.8535 113.026 32.105C113.191 32.3564 113.408 32.5705 113.676 32.747C113.943 32.9236 114.245 33.0734 114.582 33.1964C114.925 33.3141 115.275 33.4319 115.634 33.5496C115.992 33.6673 116.34 33.7984 116.677 33.9428C117.02 34.0819 117.325 34.2585 117.592 34.4725C117.86 34.6865 118.074 34.9513 118.234 35.267C118.4 35.5773 118.483 35.9652 118.483 36.4307C118.483 36.9069 118.4 37.3563 118.234 37.779C118.074 38.1963 117.838 38.5601 117.528 38.8705C117.218 39.1808 116.838 39.4269 116.388 39.6088C115.939 39.7854 115.425 39.8736 114.847 39.8736C114.098 39.8736 113.454 39.7426 112.913 39.4804C112.373 39.2129 111.899 38.8491 111.493 38.3889L111.717 38.0358C111.782 37.9556 111.857 37.9154 111.942 37.9154C111.99 37.9154 112.052 37.9475 112.127 38.0117C112.202 38.0759 112.293 38.1562 112.4 38.2525C112.507 38.3434 112.635 38.4451 112.785 38.5575C112.935 38.6645 113.108 38.7661 113.306 38.8624C113.504 38.9534 113.732 39.031 113.989 39.0952C114.245 39.1594 114.537 39.1915 114.863 39.1915C115.313 39.1915 115.714 39.1246 116.067 38.9908C116.42 38.8517 116.717 38.6645 116.958 38.4291C117.204 38.1936 117.391 37.9154 117.52 37.5944C117.648 37.268 117.712 36.9203 117.712 36.5511C117.712 36.1498 117.629 35.8208 117.464 35.564C117.303 35.3018 117.089 35.0851 116.822 34.9139C116.554 34.7373 116.249 34.5902 115.907 34.4725C115.57 34.3548 115.222 34.2398 114.863 34.1274C114.505 34.015 114.154 33.8893 113.812 33.7502C113.475 33.6111 113.173 33.4345 112.905 33.2205C112.638 33.0012 112.421 32.731 112.255 32.4099C112.095 32.0836 112.014 31.677 112.014 31.1901C112.014 30.8102 112.087 30.4437 112.231 30.0906C112.375 29.7375 112.587 29.4271 112.865 29.1596C113.143 28.8868 113.486 28.6701 113.892 28.5096C114.304 28.3437 114.772 28.2608 115.297 28.2608C115.885 28.2608 116.412 28.3544 116.878 28.5417C117.349 28.7289 117.777 29.0152 118.162 29.4004L117.969 29.7696Z" fill="white"/>
<path d="M121.925 33.6298H122.599C122.701 33.6298 122.789 33.6271 122.864 33.6218C122.939 33.6111 123.006 33.595 123.065 33.5736C123.129 33.5469 123.188 33.5148 123.241 33.4773C123.295 33.4399 123.351 33.3917 123.41 33.3329L127.992 28.6219C128.078 28.5363 128.156 28.4775 128.225 28.4454C128.3 28.4079 128.391 28.3892 128.498 28.3892H129.164L124.204 33.4854C124.103 33.5924 124.012 33.6753 123.932 33.7341C123.857 33.793 123.771 33.8412 123.675 33.8786C123.787 33.9107 123.886 33.9615 123.972 34.0311C124.063 34.0953 124.154 34.1809 124.245 34.2879L129.477 39.7452H128.811C128.672 39.7452 128.573 39.7265 128.514 39.6891C128.455 39.6463 128.394 39.5927 128.33 39.5285L123.522 34.617C123.463 34.5581 123.41 34.5073 123.362 34.4645C123.314 34.4217 123.257 34.3869 123.193 34.3601C123.134 34.328 123.062 34.3066 122.977 34.2959C122.891 34.2799 122.784 34.2719 122.655 34.2719H121.925V39.7452H121.107V28.3731H121.925V33.6298Z" fill="white"/>
</svg>
